<?xml version="1.0" encoding="us-ascii" standalone="no"?><svg xmlns="http://www.w3.org/2000/svg" xmlns:xlink="http://www.w3.org/1999/xlink" contentStyleType="text/css" height="382px" preserveAspectRatio="none" style="width:370px;height:382px;background:#FFFFFF;" version="1.1" viewBox="0 0 370 382" width="370px" zoomAndPan="magnify"><defs/><g><!--class Universidad--><g id="elem_Universidad"><rect codeLine="1" fill="#F1F1F1" height="153.6563" id="Universidad" rx="2.5" ry="2.5" style="stroke:#181818;stroke-width:0.5;" width="356" x="7" y="7"/><ellipse cx="143.75" cy="23" fill="#ADD1B2" rx="11" ry="11" style="stroke:#181818;stroke-width:1.0;"/><path d="M146.5156,18.875 Q146.6719,18.6563 146.8594,18.5469 Q147.0469,18.4375 147.2656,18.4375 Q147.6406,18.4375 147.875,18.7031 Q148.1094,18.9531 148.1094,19.5625 L148.1094,21.0156 Q148.1094,21.625 147.875,21.8906 Q147.6406,22.1563 147.2656,22.1563 Q146.9219,22.1563 146.7188,21.9531 Q146.5156,21.7656 146.4063,21.25 Q146.3594,20.8906 146.1719,20.7031 Q145.8438,20.3281 145.2344,20.1094 Q144.625,19.8906 144,19.8906 Q143.2344,19.8906 142.5938,20.2188 Q141.9688,20.5469 141.4688,21.2969 Q140.9844,22.0469 140.9844,23.0781 L140.9844,24.1719 Q140.9844,25.4063 141.875,26.2344 Q142.7656,27.0469 144.3594,27.0469 Q145.2969,27.0469 145.9531,26.7969 Q146.3438,26.6406 146.7656,26.2031 Q147.0313,25.9375 147.1719,25.8594 Q147.3281,25.7813 147.5313,25.7813 Q147.8594,25.7813 148.1094,26.0469 Q148.375,26.2969 148.375,26.6406 Q148.375,26.9844 148.0313,27.3906 Q147.5313,27.9688 146.7344,28.2969 Q145.6563,28.75 144.3594,28.75 Q142.8438,28.75 141.6406,28.125 Q140.6563,27.625 139.9688,26.5625 Q139.2813,25.4844 139.2813,24.2031 L139.2813,23.0469 Q139.2813,21.7188 139.8906,20.5781 Q140.5156,19.4219 141.6094,18.8125 Q142.7031,18.1875 143.9375,18.1875 Q144.6719,18.1875 145.3125,18.3594 Q145.9688,18.5156 146.5156,18.875 Z " fill="#000000"/><text fill="#000000" font-family="sans-serif" font-size="14" lengthAdjust="spacing" textLength="74" x="164.25" y="28.7285">Universidad</text><line style="stroke:#181818;stroke-width:0.5;" x1="8" x2="362" y1="39" y2="39"/><rect fill="none" height="6" style="stroke:#C82930;stroke-width:1.0;" width="6" x="15" y="50.3047"/><text fill="#000000" font-family="sans-serif" font-size="14" lengthAdjust="spacing" textLength="97" x="27" y="57.5332">nombre : String</text><rect fill="none" height="6" style="stroke:#C82930;stroke-width:1.0;" width="6" x="15" y="67.9141"/><text fill="#000000" font-family="sans-serif" font-size="14" lengthAdjust="spacing" textLength="124" x="27" y="75.1426">cupoDisponible : int</text><line style="stroke:#181818;stroke-width:0.5;" x1="8" x2="362" y1="82.2188" y2="82.2188"/><ellipse cx="18" cy="96.5234" fill="#84BE84" rx="3" ry="3" style="stroke:#038048;stroke-width:1.0;"/><text fill="#000000" font-family="sans-serif" font-size="14" lengthAdjust="spacing" textLength="274" x="27" y="100.752">Universidad(nombre: String, cupoInicial: int)</text><ellipse cx="18" cy="114.1328" fill="#84BE84" rx="3" ry="3" style="stroke:#038048;stroke-width:1.0;"/><text fill="#000000" font-family="sans-serif" font-size="14" lengthAdjust="spacing" textLength="128" x="27" y="118.3613">getNombre() : String</text><ellipse cx="18" cy="131.7422" fill="#84BE84" rx="3" ry="3" style="stroke:#038048;stroke-width:1.0;"/><text fill="#000000" font-family="sans-serif" font-size="14" lengthAdjust="spacing" textLength="157" x="27" y="135.9707">getCupoDisponible() : int</text><ellipse cx="18" cy="149.3516" fill="#84BE84" rx="3" ry="3" style="stroke:#038048;stroke-width:1.0;"/><text fill="#000000" font-family="sans-serif" font-size="14" lengthAdjust="spacing" textLength="330" x="27" y="153.5801">inscribirEstudiante(estudiante: Estudiante) : boolean</text></g><!--class Estudiante--><g id="elem_Estudiante"><rect codeLine="10" fill="#F1F1F1" height="136.0469" id="Estudiante" rx="2.5" ry="2.5" style="stroke:#181818;stroke-width:0.5;" width="344" x="13" y="239"/><ellipse cx="147.25" cy="255" fill="#ADD1B2" rx="11" ry="11" style="stroke:#181818;stroke-width:1.0;"/><path d="M150.0156,250.875 Q150.1719,250.6563 150.3594,250.5469 Q150.5469,250.4375 150.7656,250.4375 Q151.1406,250.4375 151.375,250.7031 Q151.6094,250.9531 151.6094,251.5625 L151.6094,253.0156 Q151.6094,253.625 151.375,253.8906 Q151.1406,254.1563 150.7656,254.1563 Q150.4219,254.1563 150.2188,253.9531 Q150.0156,253.7656 149.9063,253.25 Q149.8594,252.8906 149.6719,252.7031 Q149.3438,252.3281 148.7344,252.1094 Q148.125,251.8906 147.5,251.8906 Q146.7344,251.8906 146.0938,252.2188 Q145.4688,252.5469 144.9688,253.2969 Q144.4844,254.0469 144.4844,255.0781 L144.4844,256.1719 Q144.4844,257.4063 145.375,258.2344 Q146.2656,259.0469 147.8594,259.0469 Q148.7969,259.0469 149.4531,258.7969 Q149.8438,258.6406 150.2656,258.2031 Q150.5313,257.9375 150.6719,257.8594 Q150.8281,257.7813 151.0313,257.7813 Q151.3594,257.7813 151.6094,258.0469 Q151.875,258.2969 151.875,258.6406 Q151.875,258.9844 151.5313,259.3906 Q151.0313,259.9688 150.2344,260.2969 Q149.1563,260.75 147.8594,260.75 Q146.3438,260.75 145.1406,260.125 Q144.1563,259.625 143.4688,258.5625 Q142.7813,257.4844 142.7813,256.2031 L142.7813,255.0469 Q142.7813,253.7188 143.3906,252.5781 Q144.0156,251.4219 145.1094,250.8125 Q146.2031,250.1875 147.4375,250.1875 Q148.1719,250.1875 148.8125,250.3594 Q149.4688,250.5156 150.0156,250.875 Z " fill="#000000"/><text fill="#000000" font-family="sans-serif" font-size="14" lengthAdjust="spacing" textLength="67" x="167.75" y="260.7285">Estudiante</text><line style="stroke:#181818;stroke-width:0.5;" x1="14" x2="356" y1="271" y2="271"/><rect fill="none" height="6" style="stroke:#C82930;stroke-width:1.0;" width="6" x="21" y="282.3047"/><text fill="#000000" font-family="sans-serif" font-size="14" lengthAdjust="spacing" textLength="97" x="33" y="289.5332">nombre : String</text><rect fill="none" height="6" style="stroke:#C82930;stroke-width:1.0;" width="6" x="21" y="299.9141"/><text fill="#000000" font-family="sans-serif" font-size="14" lengthAdjust="spacing" textLength="144" x="33" y="307.1426">tieneHistorial : boolean</text><line style="stroke:#181818;stroke-width:0.5;" x1="14" x2="356" y1="314.2188" y2="314.2188"/><ellipse cx="24" cy="328.5234" fill="#84BE84" rx="3" ry="3" style="stroke:#038048;stroke-width:1.0;"/><text fill="#000000" font-family="sans-serif" font-size="14" lengthAdjust="spacing" textLength="318" x="33" y="332.752">Estudiante(nombre: String, tieneHistorial: boolean)</text><ellipse cx="24" cy="346.1328" fill="#84BE84" rx="3" ry="3" style="stroke:#038048;stroke-width:1.0;"/><text fill="#000000" font-family="sans-serif" font-size="14" lengthAdjust="spacing" textLength="128" x="33" y="350.3613">getNombre() : String</text><ellipse cx="24" cy="363.7422" fill="#84BE84" rx="3" ry="3" style="stroke:#038048;stroke-width:1.0;"/><text fill="#000000" font-family="sans-serif" font-size="14" lengthAdjust="spacing" textLength="154" x="33" y="367.9707">tieneHistorial() : boolean</text></g><!--link Universidad to Estudiante--><g id="link_Universidad_Estudiante"><path codeLine="18" d="M185,161.06 C185,186.28 185,208.16 185,232.68 " fill="none" id="Universidad-to-Estudiante" style="stroke:#181818;stroke-width:1.0;"/><polygon fill="#181818" points="185,238.68,189,229.68,185,233.68,181,229.68,185,238.68" style="stroke:#181818;stroke-width:1.0;"/><text fill="#000000" font-family="sans-serif" font-size="13" lengthAdjust="spacing" textLength="56" x="186" y="205.4951">inscribe a</text><text fill="#000000" font-family="sans-serif" font-size="13" lengthAdjust="spacing" textLength="7" x="177.6883" y="182.1617">1</text><text fill="#000000" font-family="sans-serif" font-size="13" lengthAdjust="spacing" textLength="5" x="179.7422" y="228.3203">*</text></g><!--SRC=[ZP6n3e8m48PtdkBI2LG6LmONDT75nVW0RRcOI_1Ask9YV7UX81GMxTJSVz_zzxUwaix1ZUc9rb4fItWbq9uSs3oKHIZWwYtnVQZgfZO7ShLXKbMd4liWhUCXQGz_sKt0paoQP1MGR63kw2-XDStcJa7Qpyn2osH7xBGbHVReV5EIP8yfZjS2fdB7AMCgb9oyaqI7o9Fy8x4dP3oHyyQssqUZ-ZKYzsNeEJc2VsIVa-aYGFnROYiWptSWLYAEL80OtWT1YWy0]--></g></svg>