<?xml version="1.0" encoding="us-ascii" standalone="no"?><svg xmlns="http://www.w3.org/2000/svg" xmlns:xlink="http://www.w3.org/1999/xlink" contentStyleType="text/css" height="992px" preserveAspectRatio="none" style="width:2405px;height:992px;background:#FFFFFF;" version="1.1" viewBox="0 0 2405 992" width="2405px" zoomAndPan="magnify"><defs/><g><!--cluster Interfaz--><g id="cluster_Interfaz"><path d="M350.5,473.5 L404.5,473.5 A3.75,3.75 0 0 1 407,476 L414,497.1094 L1117.5,497.1094 A2.5,2.5 0 0 1 1120,499.6094 L1120,982.5 A2.5,2.5 0 0 1 1117.5,985 L350.5,985 A2.5,2.5 0 0 1 348,982.5 L348,476 A2.5,2.5 0 0 1 350.5,473.5 " fill="none" style="stroke:#000000;stroke-width:1.5;"/><line style="stroke:#000000;stroke-width:1.5;" x1="348" x2="414" y1="497.1094" y2="497.1094"/><text fill="#000000" font-family="sans-serif" font-size="14" font-weight="bold" lengthAdjust="spacing" textLength="53" x="352" y="490.0332">Interfaz</text></g><!--cluster Singleton--><g id="cluster_Singleton"><path d="M1942.5,421 L2010.5,421 A3.75,3.75 0 0 1 2013,423.5 L2020,444.6094 L2395.5,444.6094 A2.5,2.5 0 0 1 2398,447.1094 L2398,811.5 A2.5,2.5 0 0 1 2395.5,814 L1942.5,814 A2.5,2.5 0 0 1 1940,811.5 L1940,423.5 A2.5,2.5 0 0 1 1942.5,421 " fill="none" style="stroke:#000000;stroke-width:1.5;"/><line style="stroke:#000000;stroke-width:1.5;" x1="1940" x2="2020" y1="444.6094" y2="444.6094"/><text fill="#000000" font-family="sans-serif" font-size="14" font-weight="bold" lengthAdjust="spacing" textLength="67" x="1944" y="437.5332">Singleton</text></g><!--cluster Observador--><g id="cluster_Observador"><path d="M8.5,41 L93.5,41 A3.75,3.75 0 0 1 96,43.5 L103,64.6094 L1117.5,64.6094 A2.5,2.5 0 0 1 1120,67.1094 L1120,156.5 A2.5,2.5 0 0 1 1117.5,159 L8.5,159 A2.5,2.5 0 0 1 6,156.5 L6,43.5 A2.5,2.5 0 0 1 8.5,41 " fill="none" style="stroke:#000000;stroke-width:1.5;"/><line style="stroke:#000000;stroke-width:1.5;" x1="6" x2="103" y1="64.6094" y2="64.6094"/><text fill="#000000" font-family="sans-serif" font-size="14" font-weight="bold" lengthAdjust="spacing" textLength="84" x="10" y="57.5332">Observador</text></g><!--cluster Decorador--><g id="cluster_Decorador"><path d="M1146.5,6 L1221.5,6 A3.75,3.75 0 0 1 1224,8.5 L1231,29.6094 L1913.5,29.6094 A2.5,2.5 0 0 1 1916,32.1094 L1916,589 A2.5,2.5 0 0 1 1913.5,591.5 L1146.5,591.5 A2.5,2.5 0 0 1 1144,589 L1144,8.5 A2.5,2.5 0 0 1 1146.5,6 " fill="none" style="stroke:#000000;stroke-width:1.5;"/><line style="stroke:#000000;stroke-width:1.5;" x1="1144" x2="1231" y1="29.6094" y2="29.6094"/><text fill="#000000" font-family="sans-serif" font-size="14" font-weight="bold" lengthAdjust="spacing" textLength="74" x="1148" y="22.5332">Decorador</text></g><!--class GestorInscripcion--><g id="elem_GestorInscripcion"><rect codeLine="2" fill="#F1F1F1" height="65.6094" id="GestorInscripcion" rx="2.5" ry="2.5" style="stroke:#181818;stroke-width:0.5;" width="181" x="653.5" y="509.5"/><ellipse cx="686.05" cy="525.5" fill="#ADD1B2" rx="11" ry="11" style="stroke:#181818;stroke-width:1.0;"/><path d="M688.8156,521.375 Q688.9719,521.1563 689.1594,521.0469 Q689.3469,520.9375 689.5656,520.9375 Q689.9406,520.9375 690.175,521.2031 Q690.4094,521.4531 690.4094,522.0625 L690.4094,523.5156 Q690.4094,524.125 690.175,524.3906 Q689.9406,524.6563 689.5656,524.6563 Q689.2219,524.6563 689.0188,524.4531 Q688.8156,524.2656 688.7063,523.75 Q688.6594,523.3906 688.4719,523.2031 Q688.1438,522.8281 687.5344,522.6094 Q686.925,522.3906 686.3,522.3906 Q685.5344,522.3906 684.8938,522.7188 Q684.2688,523.0469 683.7688,523.7969 Q683.2844,524.5469 683.2844,525.5781 L683.2844,526.6719 Q683.2844,527.9063 684.175,528.7344 Q685.0656,529.5469 686.6594,529.5469 Q687.5969,529.5469 688.2531,529.2969 Q688.6438,529.1406 689.0656,528.7031 Q689.3313,528.4375 689.4719,528.3594 Q689.6281,528.2813 689.8313,528.2813 Q690.1594,528.2813 690.4094,528.5469 Q690.675,528.7969 690.675,529.1406 Q690.675,529.4844 690.3313,529.8906 Q689.8313,530.4688 689.0344,530.7969 Q687.9563,531.25 686.6594,531.25 Q685.1438,531.25 683.9406,530.625 Q682.9563,530.125 682.2688,529.0625 Q681.5813,527.9844 681.5813,526.7031 L681.5813,525.5469 Q681.5813,524.2188 682.1906,523.0781 Q682.8156,521.9219 683.9094,521.3125 Q685.0031,520.6875 686.2375,520.6875 Q686.9719,520.6875 687.6125,520.8594 Q688.2688,521.0156 688.8156,521.375 Z " fill="#000000"/><text fill="#000000" font-family="sans-serif" font-size="14" lengthAdjust="spacing" textLength="110" x="703.95" y="531.2285">GestorInscripcion</text><line style="stroke:#181818;stroke-width:0.5;" x1="654.5" x2="833.5" y1="541.5" y2="541.5"/><line style="stroke:#181818;stroke-width:0.5;" x1="654.5" x2="833.5" y1="549.5" y2="549.5"/><ellipse cx="664.5" cy="563.8047" fill="#84BE84" rx="3" ry="3" style="stroke:#038048;stroke-width:1.0;"/><text fill="#000000" font-family="sans-serif" font-size="14" lengthAdjust="spacing" textLength="155" x="673.5" y="568.0332">main(args: String[]): void</text></g><!--class Estudiante--><g id="elem_Estudiante"><rect codeLine="6" fill="#F1F1F1" height="136.0469" id="Estudiante" rx="2.5" ry="2.5" style="stroke:#181818;stroke-width:0.5;" width="345" x="758.5" y="706"/><ellipse cx="893.25" cy="722" fill="#ADD1B2" rx="11" ry="11" style="stroke:#181818;stroke-width:1.0;"/><path d="M896.0156,717.875 Q896.1719,717.6563 896.3594,717.5469 Q896.5469,717.4375 896.7656,717.4375 Q897.1406,717.4375 897.375,717.7031 Q897.6094,717.9531 897.6094,718.5625 L897.6094,720.0156 Q897.6094,720.625 897.375,720.8906 Q897.1406,721.1563 896.7656,721.1563 Q896.4219,721.1563 896.2188,720.9531 Q896.0156,720.7656 895.9063,720.25 Q895.8594,719.8906 895.6719,719.7031 Q895.3438,719.3281 894.7344,719.1094 Q894.125,718.8906 893.5,718.8906 Q892.7344,718.8906 892.0938,719.2188 Q891.4688,719.5469 890.9688,720.2969 Q890.4844,721.0469 890.4844,722.0781 L890.4844,723.1719 Q890.4844,724.4063 891.375,725.2344 Q892.2656,726.0469 893.8594,726.0469 Q894.7969,726.0469 895.4531,725.7969 Q895.8438,725.6406 896.2656,725.2031 Q896.5313,724.9375 896.6719,724.8594 Q896.8281,724.7813 897.0313,724.7813 Q897.3594,724.7813 897.6094,725.0469 Q897.875,725.2969 897.875,725.6406 Q897.875,725.9844 897.5313,726.3906 Q897.0313,726.9688 896.2344,727.2969 Q895.1563,727.75 893.8594,727.75 Q892.3438,727.75 891.1406,727.125 Q890.1563,726.625 889.4688,725.5625 Q888.7813,724.4844 888.7813,723.2031 L888.7813,722.0469 Q888.7813,720.7188 889.3906,719.5781 Q890.0156,718.4219 891.1094,717.8125 Q892.2031,717.1875 893.4375,717.1875 Q894.1719,717.1875 894.8125,717.3594 Q895.4688,717.5156 896.0156,717.875 Z " fill="#000000"/><text fill="#000000" font-family="sans-serif" font-size="14" lengthAdjust="spacing" textLength="67" x="913.75" y="727.7285">Estudiante</text><line style="stroke:#181818;stroke-width:0.5;" x1="759.5" x2="1102.5" y1="738" y2="738"/><rect fill="none" height="6" style="stroke:#C82930;stroke-width:1.0;" width="6" x="766.5" y="749.3047"/><text fill="#000000" font-family="sans-serif" font-size="14" lengthAdjust="spacing" textLength="93" x="778.5" y="756.5332">nombre: String</text><rect fill="none" height="6" style="stroke:#C82930;stroke-width:1.0;" width="6" x="766.5" y="766.9141"/><text fill="#000000" font-family="sans-serif" font-size="14" lengthAdjust="spacing" textLength="141" x="778.5" y="774.1426">historialAcademico: int</text><line style="stroke:#181818;stroke-width:0.5;" x1="759.5" x2="1102.5" y1="781.2188" y2="781.2188"/><ellipse cx="769.5" cy="795.5234" fill="#84BE84" rx="3" ry="3" style="stroke:#038048;stroke-width:1.0;"/><text fill="#000000" font-family="sans-serif" font-size="14" lengthAdjust="spacing" textLength="319" x="778.5" y="799.752">Estudiante(nombre: String, historialAcademico: int)</text><ellipse cx="769.5" cy="813.1328" fill="#84BE84" rx="3" ry="3" style="stroke:#038048;stroke-width:1.0;"/><text fill="#000000" font-family="sans-serif" font-size="14" lengthAdjust="spacing" textLength="124" x="778.5" y="817.3613">getNombre(): String</text><ellipse cx="769.5" cy="830.7422" fill="#84BE84" rx="3" ry="3" style="stroke:#038048;stroke-width:1.0;"/><text fill="#000000" font-family="sans-serif" font-size="14" lengthAdjust="spacing" textLength="172" x="778.5" y="834.9707">getHistorialAcademico(): int</text></g><!--class Inscripcion--><g id="elem_Inscripcion"><rect codeLine="14" fill="#F1F1F1" height="65.6094" id="Inscripcion" rx="2.5" ry="2.5" style="stroke:#181818;stroke-width:0.5;" width="359" x="364.5" y="741"/><ellipse cx="506.25" cy="757" fill="#ADD1B2" rx="11" ry="11" style="stroke:#181818;stroke-width:1.0;"/><path d="M509.0156,752.875 Q509.1719,752.6563 509.3594,752.5469 Q509.5469,752.4375 509.7656,752.4375 Q510.1406,752.4375 510.375,752.7031 Q510.6094,752.9531 510.6094,753.5625 L510.6094,755.0156 Q510.6094,755.625 510.375,755.8906 Q510.1406,756.1563 509.7656,756.1563 Q509.4219,756.1563 509.2188,755.9531 Q509.0156,755.7656 508.9063,755.25 Q508.8594,754.8906 508.6719,754.7031 Q508.3438,754.3281 507.7344,754.1094 Q507.125,753.8906 506.5,753.8906 Q505.7344,753.8906 505.0938,754.2188 Q504.4688,754.5469 503.9688,755.2969 Q503.4844,756.0469 503.4844,757.0781 L503.4844,758.1719 Q503.4844,759.4063 504.375,760.2344 Q505.2656,761.0469 506.8594,761.0469 Q507.7969,761.0469 508.4531,760.7969 Q508.8438,760.6406 509.2656,760.2031 Q509.5313,759.9375 509.6719,759.8594 Q509.8281,759.7813 510.0313,759.7813 Q510.3594,759.7813 510.6094,760.0469 Q510.875,760.2969 510.875,760.6406 Q510.875,760.9844 510.5313,761.3906 Q510.0313,761.9688 509.2344,762.2969 Q508.1563,762.75 506.8594,762.75 Q505.3438,762.75 504.1406,762.125 Q503.1563,761.625 502.4688,760.5625 Q501.7813,759.4844 501.7813,758.2031 L501.7813,757.0469 Q501.7813,755.7188 502.3906,754.5781 Q503.0156,753.4219 504.1094,752.8125 Q505.2031,752.1875 506.4375,752.1875 Q507.1719,752.1875 507.8125,752.3594 Q508.4688,752.5156 509.0156,752.875 Z " fill="#000000"/><text fill="#000000" font-family="sans-serif" font-size="14" lengthAdjust="spacing" textLength="67" x="526.75" y="762.7285">Inscripcion</text><line style="stroke:#181818;stroke-width:0.5;" x1="365.5" x2="722.5" y1="773" y2="773"/><line style="stroke:#181818;stroke-width:0.5;" x1="365.5" x2="722.5" y1="781" y2="781"/><ellipse cx="375.5" cy="795.3047" fill="#84BE84" rx="3" ry="3" style="stroke:#038048;stroke-width:1.0;"/><text fill="#000000" font-family="sans-serif" font-size="14" lengthAdjust="spacing" textLength="333" x="384.5" y="799.5332">inscribir(estudiante: Estudiante, carrera: String): void</text></g><!--class InscripcionConHistorial--><g id="elem_InscripcionConHistorial"><rect codeLine="18" fill="#F1F1F1" height="65.6094" id="InscripcionConHistorial" rx="2.5" ry="2.5" style="stroke:#181818;stroke-width:0.5;" width="359" x="364.5" y="903"/><ellipse cx="468.25" cy="919" fill="#ADD1B2" rx="11" ry="11" style="stroke:#181818;stroke-width:1.0;"/><path d="M471.0156,914.875 Q471.1719,914.6563 471.3594,914.5469 Q471.5469,914.4375 471.7656,914.4375 Q472.1406,914.4375 472.375,914.7031 Q472.6094,914.9531 472.6094,915.5625 L472.6094,917.0156 Q472.6094,917.625 472.375,917.8906 Q472.1406,918.1563 471.7656,918.1563 Q471.4219,918.1563 471.2188,917.9531 Q471.0156,917.7656 470.9063,917.25 Q470.8594,916.8906 470.6719,916.7031 Q470.3438,916.3281 469.7344,916.1094 Q469.125,915.8906 468.5,915.8906 Q467.7344,915.8906 467.0938,916.2188 Q466.4688,916.5469 465.9688,917.2969 Q465.4844,918.0469 465.4844,919.0781 L465.4844,920.1719 Q465.4844,921.4063 466.375,922.2344 Q467.2656,923.0469 468.8594,923.0469 Q469.7969,923.0469 470.4531,922.7969 Q470.8438,922.6406 471.2656,922.2031 Q471.5313,921.9375 471.6719,921.8594 Q471.8281,921.7813 472.0313,921.7813 Q472.3594,921.7813 472.6094,922.0469 Q472.875,922.2969 472.875,922.6406 Q472.875,922.9844 472.5313,923.3906 Q472.0313,923.9688 471.2344,924.2969 Q470.1563,924.75 468.8594,924.75 Q467.3438,924.75 466.1406,924.125 Q465.1563,923.625 464.4688,922.5625 Q463.7813,921.4844 463.7813,920.2031 L463.7813,919.0469 Q463.7813,917.7188 464.3906,916.5781 Q465.0156,915.4219 466.1094,914.8125 Q467.2031,914.1875 468.4375,914.1875 Q469.1719,914.1875 469.8125,914.3594 Q470.4688,914.5156 471.0156,914.875 Z " fill="#000000"/><text fill="#000000" font-family="sans-serif" font-size="14" lengthAdjust="spacing" textLength="143" x="488.75" y="924.7285">InscripcionConHistorial</text><line style="stroke:#181818;stroke-width:0.5;" x1="365.5" x2="722.5" y1="935" y2="935"/><line style="stroke:#181818;stroke-width:0.5;" x1="365.5" x2="722.5" y1="943" y2="943"/><ellipse cx="375.5" cy="957.3047" fill="#84BE84" rx="3" ry="3" style="stroke:#038048;stroke-width:1.0;"/><text fill="#000000" font-family="sans-serif" font-size="14" lengthAdjust="spacing" textLength="333" x="384.5" y="961.5332">inscribir(estudiante: Estudiante, carrera: String): void</text></g><!--class Universidad--><g id="elem_Universidad"><rect codeLine="28" fill="#F1F1F1" height="171.2656" id="Universidad" rx="2.5" ry="2.5" style="stroke:#181818;stroke-width:0.5;" width="426" x="1956" y="457"/><ellipse cx="2127.75" cy="473" fill="#ADD1B2" rx="11" ry="11" style="stroke:#181818;stroke-width:1.0;"/><path d="M2130.5156,468.875 Q2130.6719,468.6563 2130.8594,468.5469 Q2131.0469,468.4375 2131.2656,468.4375 Q2131.6406,468.4375 2131.875,468.7031 Q2132.1094,468.9531 2132.1094,469.5625 L2132.1094,471.0156 Q2132.1094,471.625 2131.875,471.8906 Q2131.6406,472.1563 2131.2656,472.1563 Q2130.9219,472.1563 2130.7188,471.9531 Q2130.5156,471.7656 2130.4063,471.25 Q2130.3594,470.8906 2130.1719,470.7031 Q2129.8438,470.3281 2129.2344,470.1094 Q2128.625,469.8906 2128,469.8906 Q2127.2344,469.8906 2126.5938,470.2188 Q2125.9688,470.5469 2125.4688,471.2969 Q2124.9844,472.0469 2124.9844,473.0781 L2124.9844,474.1719 Q2124.9844,475.4063 2125.875,476.2344 Q2126.7656,477.0469 2128.3594,477.0469 Q2129.2969,477.0469 2129.9531,476.7969 Q2130.3438,476.6406 2130.7656,476.2031 Q2131.0313,475.9375 2131.1719,475.8594 Q2131.3281,475.7813 2131.5313,475.7813 Q2131.8594,475.7813 2132.1094,476.0469 Q2132.375,476.2969 2132.375,476.6406 Q2132.375,476.9844 2132.0313,477.3906 Q2131.5313,477.9688 2130.7344,478.2969 Q2129.6563,478.75 2128.3594,478.75 Q2126.8438,478.75 2125.6406,478.125 Q2124.6563,477.625 2123.9688,476.5625 Q2123.2813,475.4844 2123.2813,474.2031 L2123.2813,473.0469 Q2123.2813,471.7188 2123.8906,470.5781 Q2124.5156,469.4219 2125.6094,468.8125 Q2126.7031,468.1875 2127.9375,468.1875 Q2128.6719,468.1875 2129.3125,468.3594 Q2129.9688,468.5156 2130.5156,468.875 Z " fill="#000000"/><text fill="#000000" font-family="sans-serif" font-size="14" lengthAdjust="spacing" textLength="74" x="2148.25" y="478.7285">Universidad</text><line style="stroke:#181818;stroke-width:0.5;" x1="1957" x2="2381" y1="489" y2="489"/><rect fill="none" height="6" style="stroke:#C82930;stroke-width:1.0;" width="6" x="1964" y="500.3047"/><text fill="#000000" font-family="sans-serif" font-size="14" lengthAdjust="spacing" textLength="138" x="1976" y="507.5332">instancia: Universidad</text><rect fill="none" height="6" style="stroke:#C82930;stroke-width:1.0;" width="6" x="1964" y="517.9141"/><text fill="#000000" font-family="sans-serif" font-size="14" lengthAdjust="spacing" textLength="106" x="1976" y="525.1426">carreras: String[]</text><rect fill="none" height="6" style="stroke:#C82930;stroke-width:1.0;" width="6" x="1964" y="535.5234"/><text fill="#000000" font-family="sans-serif" font-size="14" lengthAdjust="spacing" textLength="69" x="1976" y="542.752">cupos: int[]</text><rect fill="none" height="6" style="stroke:#C82930;stroke-width:1.0;" width="6" x="1964" y="553.1328"/><text fill="#000000" font-family="sans-serif" font-size="14" lengthAdjust="spacing" textLength="209" x="1976" y="560.3613">inscripcionObserver: Observador</text><line style="stroke:#181818;stroke-width:0.5;" x1="1957" x2="2381" y1="567.4375" y2="567.4375"/><ellipse cx="1967" cy="581.7422" fill="#84BE84" rx="3" ry="3" style="stroke:#038048;stroke-width:1.0;"/><text fill="#000000" font-family="sans-serif" font-size="14" lengthAdjust="spacing" textLength="165" x="1976" y="585.9707">getInstance(): Universidad</text><ellipse cx="1967" cy="599.3516" fill="#84BE84" rx="3" ry="3" style="stroke:#038048;stroke-width:1.0;"/><text fill="#000000" font-family="sans-serif" font-size="14" lengthAdjust="spacing" textLength="277" x="1976" y="603.5801">setObservador(observer: Observador): void</text><ellipse cx="1967" cy="616.9609" fill="#84BE84" rx="3" ry="3" style="stroke:#038048;stroke-width:1.0;"/><text fill="#000000" font-family="sans-serif" font-size="14" lengthAdjust="spacing" textLength="400" x="1976" y="621.1895">inscribirEstudiante(estudiante: Estudiante, carrera: String): void</text></g><!--class Observador--><g id="elem_Observador"><rect fill="#F1F1F1" height="48" id="Observador" rx="2.5" ry="2.5" style="stroke:#181818;stroke-width:0.5;" width="107" x="2115.5" y="750"/><ellipse cx="2130.5" cy="766" fill="#ADD1B2" rx="11" ry="11" style="stroke:#181818;stroke-width:1.0;"/><path d="M2133.2656,761.875 Q2133.4219,761.6563 2133.6094,761.5469 Q2133.7969,761.4375 2134.0156,761.4375 Q2134.3906,761.4375 2134.625,761.7031 Q2134.8594,761.9531 2134.8594,762.5625 L2134.8594,764.0156 Q2134.8594,764.625 2134.625,764.8906 Q2134.3906,765.1563 2134.0156,765.1563 Q2133.6719,765.1563 2133.4688,764.9531 Q2133.2656,764.7656 2133.1563,764.25 Q2133.1094,763.8906 2132.9219,763.7031 Q2132.5938,763.3281 2131.9844,763.1094 Q2131.375,762.8906 2130.75,762.8906 Q2129.9844,762.8906 2129.3438,763.2188 Q2128.7188,763.5469 2128.2188,764.2969 Q2127.7344,765.0469 2127.7344,766.0781 L2127.7344,767.1719 Q2127.7344,768.4063 2128.625,769.2344 Q2129.5156,770.0469 2131.1094,770.0469 Q2132.0469,770.0469 2132.7031,769.7969 Q2133.0938,769.6406 2133.5156,769.2031 Q2133.7813,768.9375 2133.9219,768.8594 Q2134.0781,768.7813 2134.2813,768.7813 Q2134.6094,768.7813 2134.8594,769.0469 Q2135.125,769.2969 2135.125,769.6406 Q2135.125,769.9844 2134.7813,770.3906 Q2134.2813,770.9688 2133.4844,771.2969 Q2132.4063,771.75 2131.1094,771.75 Q2129.5938,771.75 2128.3906,771.125 Q2127.4063,770.625 2126.7188,769.5625 Q2126.0313,768.4844 2126.0313,767.2031 L2126.0313,766.0469 Q2126.0313,764.7188 2126.6406,763.5781 Q2127.2656,762.4219 2128.3594,761.8125 Q2129.4531,761.1875 2130.6875,761.1875 Q2131.4219,761.1875 2132.0625,761.3594 Q2132.7188,761.5156 2133.2656,761.875 Z " fill="#000000"/><text fill="#000000" font-family="sans-serif" font-size="14" lengthAdjust="spacing" textLength="75" x="2144.5" y="771.7285">Observador</text><line style="stroke:#181818;stroke-width:0.5;" x1="2116.5" x2="2221.5" y1="782" y2="782"/><line style="stroke:#181818;stroke-width:0.5;" x1="2116.5" x2="2221.5" y1="790" y2="790"/></g><!--class Observador--><g id="elem_Observador"><rect codeLine="43" fill="#F1F1F1" height="65.6094" id="Observador" rx="2.5" ry="2.5" style="stroke:#181818;stroke-width:0.5;" width="523" x="580.5" y="77"/><ellipse cx="800.75" cy="93" fill="#B4A7E5" rx="11" ry="11" style="stroke:#181818;stroke-width:1.0;"/><path d="M801.7031,89.6406 L801.7031,96.2969 L803.4219,96.2969 Q804.0313,96.2969 804.2969,96.5313 Q804.5625,96.7656 804.5625,97.1563 Q804.5625,97.5313 804.2969,97.7656 Q804.0313,98 803.4219,98 L798.2813,98 Q797.6719,98 797.4063,97.7656 Q797.1406,97.5313 797.1406,97.1406 Q797.1406,96.7656 797.4063,96.5313 Q797.6719,96.2969 798.2813,96.2969 L800,96.2969 L800,89.6406 L798.2813,89.6406 Q797.6719,89.6406 797.4063,89.4063 Q797.1406,89.1719 797.1406,88.7813 Q797.1406,88.4063 797.4063,88.1719 Q797.6719,87.9375 798.2813,87.9375 L803.4219,87.9375 Q804.0313,87.9375 804.2969,88.1719 Q804.5625,88.4063 804.5625,88.7813 Q804.5625,89.1719 804.2969,89.4063 Q804.0313,89.6406 803.4219,89.6406 L801.7031,89.6406 Z " fill="#000000"/><text fill="#000000" font-family="sans-serif" font-size="14" font-style="italic" lengthAdjust="spacing" textLength="74" x="821.25" y="98.7285">Observador</text><line style="stroke:#181818;stroke-width:0.5;" x1="581.5" x2="1102.5" y1="109" y2="109"/><line style="stroke:#181818;stroke-width:0.5;" x1="581.5" x2="1102.5" y1="117" y2="117"/><ellipse cx="591.5" cy="131.3047" fill="#84BE84" rx="3" ry="3" style="stroke:#038048;stroke-width:1.0;"/><text fill="#000000" font-family="sans-serif" font-size="14" lengthAdjust="spacing" textLength="497" x="600.5" y="135.5332">notificarInscripcion(estudiante: Estudiante, carrera: String, exito: boolean): void</text></g><!--class Notificador--><g id="elem_Notificador"><rect codeLine="47" fill="#F1F1F1" height="65.6094" id="Notificador" rx="2.5" ry="2.5" style="stroke:#181818;stroke-width:0.5;" width="523" x="22.5" y="77"/><ellipse cx="246.25" cy="93" fill="#ADD1B2" rx="11" ry="11" style="stroke:#181818;stroke-width:1.0;"/><path d="M249.0156,88.875 Q249.1719,88.6563 249.3594,88.5469 Q249.5469,88.4375 249.7656,88.4375 Q250.1406,88.4375 250.375,88.7031 Q250.6094,88.9531 250.6094,89.5625 L250.6094,91.0156 Q250.6094,91.625 250.375,91.8906 Q250.1406,92.1563 249.7656,92.1563 Q249.4219,92.1563 249.2188,91.9531 Q249.0156,91.7656 248.9063,91.25 Q248.8594,90.8906 248.6719,90.7031 Q248.3438,90.3281 247.7344,90.1094 Q247.125,89.8906 246.5,89.8906 Q245.7344,89.8906 245.0938,90.2188 Q244.4688,90.5469 243.9688,91.2969 Q243.4844,92.0469 243.4844,93.0781 L243.4844,94.1719 Q243.4844,95.4063 244.375,96.2344 Q245.2656,97.0469 246.8594,97.0469 Q247.7969,97.0469 248.4531,96.7969 Q248.8438,96.6406 249.2656,96.2031 Q249.5313,95.9375 249.6719,95.8594 Q249.8281,95.7813 250.0313,95.7813 Q250.3594,95.7813 250.6094,96.0469 Q250.875,96.2969 250.875,96.6406 Q250.875,96.9844 250.5313,97.3906 Q250.0313,97.9688 249.2344,98.2969 Q248.1563,98.75 246.8594,98.75 Q245.3438,98.75 244.1406,98.125 Q243.1563,97.625 242.4688,96.5625 Q241.7813,95.4844 241.7813,94.2031 L241.7813,93.0469 Q241.7813,91.7188 242.3906,90.5781 Q243.0156,89.4219 244.1094,88.8125 Q245.2031,88.1875 246.4375,88.1875 Q247.1719,88.1875 247.8125,88.3594 Q248.4688,88.5156 249.0156,88.875 Z " fill="#000000"/><text fill="#000000" font-family="sans-serif" font-size="14" lengthAdjust="spacing" textLength="67" x="266.75" y="98.7285">Notificador</text><line style="stroke:#181818;stroke-width:0.5;" x1="23.5" x2="544.5" y1="109" y2="109"/><line style="stroke:#181818;stroke-width:0.5;" x1="23.5" x2="544.5" y1="117" y2="117"/><ellipse cx="33.5" cy="131.3047" fill="#84BE84" rx="3" ry="3" style="stroke:#038048;stroke-width:1.0;"/><text fill="#000000" font-family="sans-serif" font-size="14" lengthAdjust="spacing" textLength="497" x="42.5" y="135.5332">notificarInscripcion(estudiante: Estudiante, carrera: String, exito: boolean): void</text></g><!--class Estudiante--><g id="elem_Estudiante"><rect codeLine="55" fill="#F1F1F1" height="136.0469" id="Estudiante" rx="2.5" ry="2.5" style="stroke:#181818;stroke-width:0.5;" width="345" x="1554.5" y="42"/><ellipse cx="1689.25" cy="58" fill="#ADD1B2" rx="11" ry="11" style="stroke:#181818;stroke-width:1.0;"/><path d="M1692.0156,53.875 Q1692.1719,53.6563 1692.3594,53.5469 Q1692.5469,53.4375 1692.7656,53.4375 Q1693.1406,53.4375 1693.375,53.7031 Q1693.6094,53.9531 1693.6094,54.5625 L1693.6094,56.0156 Q1693.6094,56.625 1693.375,56.8906 Q1693.1406,57.1563 1692.7656,57.1563 Q1692.4219,57.1563 1692.2188,56.9531 Q1692.0156,56.7656 1691.9063,56.25 Q1691.8594,55.8906 1691.6719,55.7031 Q1691.3438,55.3281 1690.7344,55.1094 Q1690.125,54.8906 1689.5,54.8906 Q1688.7344,54.8906 1688.0938,55.2188 Q1687.4688,55.5469 1686.9688,56.2969 Q1686.4844,57.0469 1686.4844,58.0781 L1686.4844,59.1719 Q1686.4844,60.4063 1687.375,61.2344 Q1688.2656,62.0469 1689.8594,62.0469 Q1690.7969,62.0469 1691.4531,61.7969 Q1691.8438,61.6406 1692.2656,61.2031 Q1692.5313,60.9375 1692.6719,60.8594 Q1692.8281,60.7813 1693.0313,60.7813 Q1693.3594,60.7813 1693.6094,61.0469 Q1693.875,61.2969 1693.875,61.6406 Q1693.875,61.9844 1693.5313,62.3906 Q1693.0313,62.9688 1692.2344,63.2969 Q1691.1563,63.75 1689.8594,63.75 Q1688.3438,63.75 1687.1406,63.125 Q1686.1563,62.625 1685.4688,61.5625 Q1684.7813,60.4844 1684.7813,59.2031 L1684.7813,58.0469 Q1684.7813,56.7188 1685.3906,55.5781 Q1686.0156,54.4219 1687.1094,53.8125 Q1688.2031,53.1875 1689.4375,53.1875 Q1690.1719,53.1875 1690.8125,53.3594 Q1691.4688,53.5156 1692.0156,53.875 Z " fill="#000000"/><text fill="#000000" font-family="sans-serif" font-size="14" lengthAdjust="spacing" textLength="67" x="1709.75" y="63.7285">Estudiante</text><line style="stroke:#181818;stroke-width:0.5;" x1="1555.5" x2="1898.5" y1="74" y2="74"/><rect fill="none" height="6" style="stroke:#C82930;stroke-width:1.0;" width="6" x="1562.5" y="85.3047"/><text fill="#000000" font-family="sans-serif" font-size="14" lengthAdjust="spacing" textLength="93" x="1574.5" y="92.5332">nombre: String</text><rect fill="none" height="6" style="stroke:#C82930;stroke-width:1.0;" width="6" x="1562.5" y="102.9141"/><text fill="#000000" font-family="sans-serif" font-size="14" lengthAdjust="spacing" textLength="141" x="1574.5" y="110.1426">historialAcademico: int</text><line style="stroke:#181818;stroke-width:0.5;" x1="1555.5" x2="1898.5" y1="117.2188" y2="117.2188"/><ellipse cx="1565.5" cy="131.5234" fill="#84BE84" rx="3" ry="3" style="stroke:#038048;stroke-width:1.0;"/><text fill="#000000" font-family="sans-serif" font-size="14" lengthAdjust="spacing" textLength="319" x="1574.5" y="135.752">Estudiante(nombre: String, historialAcademico: int)</text><ellipse cx="1565.5" cy="149.1328" fill="#84BE84" rx="3" ry="3" style="stroke:#038048;stroke-width:1.0;"/><text fill="#000000" font-family="sans-serif" font-size="14" lengthAdjust="spacing" textLength="124" x="1574.5" y="153.3613">getNombre(): String</text><ellipse cx="1565.5" cy="166.7422" fill="#84BE84" rx="3" ry="3" style="stroke:#038048;stroke-width:1.0;"/><text fill="#000000" font-family="sans-serif" font-size="14" lengthAdjust="spacing" textLength="172" x="1574.5" y="170.9707">getHistorialAcademico(): int</text></g><!--class Inscripcion--><g id="elem_Inscripcion"><rect codeLine="63" fill="#F1F1F1" height="65.6094" id="Inscripcion" rx="2.5" ry="2.5" style="stroke:#181818;stroke-width:0.5;" width="359" x="1160.5" y="77"/><ellipse cx="1301.75" cy="93" fill="#B4A7E5" rx="11" ry="11" style="stroke:#181818;stroke-width:1.0;"/><path d="M1302.7031,89.6406 L1302.7031,96.2969 L1304.4219,96.2969 Q1305.0313,96.2969 1305.2969,96.5313 Q1305.5625,96.7656 1305.5625,97.1563 Q1305.5625,97.5313 1305.2969,97.7656 Q1305.0313,98 1304.4219,98 L1299.2813,98 Q1298.6719,98 1298.4063,97.7656 Q1298.1406,97.5313 1298.1406,97.1406 Q1298.1406,96.7656 1298.4063,96.5313 Q1298.6719,96.2969 1299.2813,96.2969 L1301,96.2969 L1301,89.6406 L1299.2813,89.6406 Q1298.6719,89.6406 1298.4063,89.4063 Q1298.1406,89.1719 1298.1406,88.7813 Q1298.1406,88.4063 1298.4063,88.1719 Q1298.6719,87.9375 1299.2813,87.9375 L1304.4219,87.9375 Q1305.0313,87.9375 1305.2969,88.1719 Q1305.5625,88.4063 1305.5625,88.7813 Q1305.5625,89.1719 1305.2969,89.4063 Q1305.0313,89.6406 1304.4219,89.6406 L1302.7031,89.6406 Z " fill="#000000"/><text fill="#000000" font-family="sans-serif" font-size="14" font-style="italic" lengthAdjust="spacing" textLength="68" x="1322.25" y="98.7285">Inscripcion</text><line style="stroke:#181818;stroke-width:0.5;" x1="1161.5" x2="1518.5" y1="109" y2="109"/><line style="stroke:#181818;stroke-width:0.5;" x1="1161.5" x2="1518.5" y1="117" y2="117"/><ellipse cx="1171.5" cy="131.3047" fill="#84BE84" rx="3" ry="3" style="stroke:#038048;stroke-width:1.0;"/><text fill="#000000" font-family="sans-serif" font-size="14" lengthAdjust="spacing" textLength="333" x="1180.5" y="135.5332">inscribir(estudiante: Estudiante, carrera: String): void</text></g><!--class InscripcionBasica--><g id="elem_InscripcionBasica"><rect codeLine="67" fill="#F1F1F1" height="100.8281" id="InscripcionBasica" rx="2.5" ry="2.5" style="stroke:#181818;stroke-width:0.5;" width="359" x="1540.5" y="256"/><ellipse cx="1661.25" cy="272" fill="#ADD1B2" rx="11" ry="11" style="stroke:#181818;stroke-width:1.0;"/><path d="M1664.0156,267.875 Q1664.1719,267.6563 1664.3594,267.5469 Q1664.5469,267.4375 1664.7656,267.4375 Q1665.1406,267.4375 1665.375,267.7031 Q1665.6094,267.9531 1665.6094,268.5625 L1665.6094,270.0156 Q1665.6094,270.625 1665.375,270.8906 Q1665.1406,271.1563 1664.7656,271.1563 Q1664.4219,271.1563 1664.2188,270.9531 Q1664.0156,270.7656 1663.9063,270.25 Q1663.8594,269.8906 1663.6719,269.7031 Q1663.3438,269.3281 1662.7344,269.1094 Q1662.125,268.8906 1661.5,268.8906 Q1660.7344,268.8906 1660.0938,269.2188 Q1659.4688,269.5469 1658.9688,270.2969 Q1658.4844,271.0469 1658.4844,272.0781 L1658.4844,273.1719 Q1658.4844,274.4063 1659.375,275.2344 Q1660.2656,276.0469 1661.8594,276.0469 Q1662.7969,276.0469 1663.4531,275.7969 Q1663.8438,275.6406 1664.2656,275.2031 Q1664.5313,274.9375 1664.6719,274.8594 Q1664.8281,274.7813 1665.0313,274.7813 Q1665.3594,274.7813 1665.6094,275.0469 Q1665.875,275.2969 1665.875,275.6406 Q1665.875,275.9844 1665.5313,276.3906 Q1665.0313,276.9688 1664.2344,277.2969 Q1663.1563,277.75 1661.8594,277.75 Q1660.3438,277.75 1659.1406,277.125 Q1658.1563,276.625 1657.4688,275.5625 Q1656.7813,274.4844 1656.7813,273.2031 L1656.7813,272.0469 Q1656.7813,270.7188 1657.3906,269.5781 Q1658.0156,268.4219 1659.1094,267.8125 Q1660.2031,267.1875 1661.4375,267.1875 Q1662.1719,267.1875 1662.8125,267.3594 Q1663.4688,267.5156 1664.0156,267.875 Z " fill="#000000"/><text fill="#000000" font-family="sans-serif" font-size="14" lengthAdjust="spacing" textLength="109" x="1681.75" y="277.7285">InscripcionBasica</text><line style="stroke:#181818;stroke-width:0.5;" x1="1541.5" x2="1898.5" y1="288" y2="288"/><rect fill="none" height="6" style="stroke:#C82930;stroke-width:1.0;" width="6" x="1548.5" y="299.3047"/><text fill="#000000" font-family="sans-serif" font-size="14" lengthAdjust="spacing" textLength="155" x="1560.5" y="306.5332">universidad: Universidad</text><line style="stroke:#181818;stroke-width:0.5;" x1="1541.5" x2="1898.5" y1="313.6094" y2="313.6094"/><ellipse cx="1551.5" cy="327.9141" fill="#84BE84" rx="3" ry="3" style="stroke:#038048;stroke-width:1.0;"/><text fill="#000000" font-family="sans-serif" font-size="14" lengthAdjust="spacing" textLength="274" x="1560.5" y="332.1426">InscripcionBasica(universidad: Universidad)</text><ellipse cx="1551.5" cy="345.5234" fill="#84BE84" rx="3" ry="3" style="stroke:#038048;stroke-width:1.0;"/><text fill="#000000" font-family="sans-serif" font-size="14" lengthAdjust="spacing" textLength="333" x="1560.5" y="349.752">inscribir(estudiante: Estudiante, carrera: String): void</text></g><!--class InscripcionConHistorial--><g id="elem_InscripcionConHistorial"><rect codeLine="73" fill="#F1F1F1" height="65.6094" id="InscripcionConHistorial" rx="2.5" ry="2.5" style="stroke:#181818;stroke-width:0.5;" width="359" x="1540.5" y="509.5"/><ellipse cx="1644.25" cy="525.5" fill="#ADD1B2" rx="11" ry="11" style="stroke:#181818;stroke-width:1.0;"/><path d="M1647.0156,521.375 Q1647.1719,521.1563 1647.3594,521.0469 Q1647.5469,520.9375 1647.7656,520.9375 Q1648.1406,520.9375 1648.375,521.2031 Q1648.6094,521.4531 1648.6094,522.0625 L1648.6094,523.5156 Q1648.6094,524.125 1648.375,524.3906 Q1648.1406,524.6563 1647.7656,524.6563 Q1647.4219,524.6563 1647.2188,524.4531 Q1647.0156,524.2656 1646.9063,523.75 Q1646.8594,523.3906 1646.6719,523.2031 Q1646.3438,522.8281 1645.7344,522.6094 Q1645.125,522.3906 1644.5,522.3906 Q1643.7344,522.3906 1643.0938,522.7188 Q1642.4688,523.0469 1641.9688,523.7969 Q1641.4844,524.5469 1641.4844,525.5781 L1641.4844,526.6719 Q1641.4844,527.9063 1642.375,528.7344 Q1643.2656,529.5469 1644.8594,529.5469 Q1645.7969,529.5469 1646.4531,529.2969 Q1646.8438,529.1406 1647.2656,528.7031 Q1647.5313,528.4375 1647.6719,528.3594 Q1647.8281,528.2813 1648.0313,528.2813 Q1648.3594,528.2813 1648.6094,528.5469 Q1648.875,528.7969 1648.875,529.1406 Q1648.875,529.4844 1648.5313,529.8906 Q1648.0313,530.4688 1647.2344,530.7969 Q1646.1563,531.25 1644.8594,531.25 Q1643.3438,531.25 1642.1406,530.625 Q1641.1563,530.125 1640.4688,529.0625 Q1639.7813,527.9844 1639.7813,526.7031 L1639.7813,525.5469 Q1639.7813,524.2188 1640.3906,523.0781 Q1641.0156,521.9219 1642.1094,521.3125 Q1643.2031,520.6875 1644.4375,520.6875 Q1645.1719,520.6875 1645.8125,520.8594 Q1646.4688,521.0156 1647.0156,521.375 Z " fill="#000000"/><text fill="#000000" font-family="sans-serif" font-size="14" lengthAdjust="spacing" textLength="143" x="1664.75" y="531.2285">InscripcionConHistorial</text><line style="stroke:#181818;stroke-width:0.5;" x1="1541.5" x2="1898.5" y1="541.5" y2="541.5"/><line style="stroke:#181818;stroke-width:0.5;" x1="1541.5" x2="1898.5" y1="549.5" y2="549.5"/><ellipse cx="1551.5" cy="563.8047" fill="#84BE84" rx="3" ry="3" style="stroke:#038048;stroke-width:1.0;"/><text fill="#000000" font-family="sans-serif" font-size="14" lengthAdjust="spacing" textLength="333" x="1560.5" y="568.0332">inscribir(estudiante: Estudiante, carrera: String): void</text></g><!--link GestorInscripcion to Estudiante--><g id="link_GestorInscripcion_Estudiante"><path codeLine="22" d="M770.4,575.89 C797.78,609.5 837.6102,658.3784 872.4802,701.1784 " fill="none" id="GestorInscripcion-to-Estudiante" style="stroke:#181818;stroke-width:1.0;"/><polygon fill="#181818" points="876.27,705.83,873.6864,696.326,873.1119,701.9536,867.4843,701.3791,876.27,705.83" style="stroke:#181818;stroke-width:1.0;"/><text fill="#000000" font-family="sans-serif" font-size="13" lengthAdjust="spacing" textLength="25" x="850" y="672.4951">crea</text></g><!--link GestorInscripcion to Inscripcion--><g id="link_GestorInscripcion_Inscripcion"><path codeLine="23" d="M715.77,575.89 C677.65,619.63 614.072,692.5967 576.032,736.2467 " fill="none" id="GestorInscripcion-to-Inscripcion" style="stroke:#181818;stroke-width:1.0;"/><polygon fill="#181818" points="572.09,740.77,581.0186,736.613,575.375,737.0005,574.9874,731.357,572.09,740.77" style="stroke:#181818;stroke-width:1.0;"/><text fill="#000000" font-family="sans-serif" font-size="13" lengthAdjust="spacing" textLength="21" x="645" y="672.4951">usa</text></g><!--reverse link Inscripcion to InscripcionConHistorial--><g id="link_Inscripcion_InscripcionConHistorial"><path codeLine="24" d="M544,825.38 C544,853.23 544,875.19 544,902.94 " fill="none" id="Inscripcion-backto-InscripcionConHistorial" style="stroke:#181818;stroke-width:1.0;"/><polygon fill="none" points="544,807.38,538,825.38,550,825.38,544,807.38" style="stroke:#181818;stroke-width:1.0;"/></g><!--link Universidad to Observador--><g id="link_Universidad_Observador"><path codeLine="38" d="M2169,628.31 C2169,671.72 2169,715.28 2169,743.68 " fill="none" id="Universidad-to-Observador" style="stroke:#181818;stroke-width:1.0;"/><polygon fill="#181818" points="2169,749.68,2173,740.68,2169,744.68,2165,740.68,2169,749.68" style="stroke:#181818;stroke-width:1.0;"/><text fill="#000000" font-family="sans-serif" font-size="13" lengthAdjust="spacing" textLength="21" x="2170" y="672.4951">usa</text></g><!--link Universidad to Estudiante--><g id="link_Universidad_Estudiante"><path codeLine="39" d="M1955.82,617.64 C1942.41,621.39 1929.06,624.88 1916,628 C1635.22,695 1307.5678,735.6689 1109.5378,756.2789 " fill="none" id="Universidad-to-Estudiante" style="stroke:#181818;stroke-width:1.0;"/><polygon fill="#181818" points="1103.57,756.9,1112.9357,759.9469,1108.5431,756.3824,1112.1076,751.9898,1103.57,756.9" style="stroke:#181818;stroke-width:1.0;"/><text fill="#000000" font-family="sans-serif" font-size="13" lengthAdjust="spacing" textLength="21" x="1757" y="672.4951">usa</text></g><!--link Notificador to Observador--><g id="link_Notificador_Observador"><path codeLine="51" d="M545.56,110 C557.14,110 550.72,110 562.3,110 " fill="none" id="Notificador-to-Observador" style="stroke:#181818;stroke-width:1.0;"/><polygon fill="none" points="580.3,110,562.3,104,562.3,116,580.3,110" style="stroke:#181818;stroke-width:1.0;"/></g><!--link Estudiante to InscripcionBasica--><g id="link_Estudiante_InscripcionBasica"><path codeLine="77" d="M1724.58,178.21 C1723.66,203.68 1722.8561,226.2139 1722.0061,249.7939 " fill="none" id="Estudiante-to-InscripcionBasica" style="stroke:#181818;stroke-width:1.0;"/><polygon fill="#181818" points="1721.79,255.79,1726.1116,246.9399,1721.9701,250.7932,1718.1168,246.6517,1721.79,255.79" style="stroke:#181818;stroke-width:1.0;"/><text fill="#000000" font-family="sans-serif" font-size="13" lengthAdjust="spacing" textLength="21" x="1724" y="222.4951">usa</text></g><!--reverse link InscripcionBasica to InscripcionConHistorial--><g id="link_InscripcionBasica_InscripcionConHistorial"><path codeLine="78" d="M1720,375.13 C1720,421.01 1720,469.86 1720,509.19 " fill="none" id="InscripcionBasica-backto-InscripcionConHistorial" style="stroke:#181818;stroke-width:1.0;"/><polygon fill="none" points="1720,357.13,1714,375.13,1726,375.13,1720,357.13" style="stroke:#181818;stroke-width:1.0;"/></g><!--link InscripcionBasica to Universidad--><g id="link_InscripcionBasica_Universidad"><path codeLine="79" d="M1815.22,357.13 C1870.82,386.1 1942.48,423.45 2006.74,456.94 " fill="none" id="InscripcionBasica-Universidad" style="stroke:#181818;stroke-width:1.0;"/><text fill="#000000" font-family="sans-serif" font-size="13" lengthAdjust="spacing" textLength="21" x="1905" y="401.4951">usa</text></g><!--reverse link Inscripcion to InscripcionBasica--><g id="link_Inscripcion_InscripcionBasica"><path codeLine="80" d="M1418.7736,151.3202 C1478.7436,182.0102 1554,220.53 1623.28,255.99 " fill="none" id="Inscripcion-backto-InscripcionBasica" style="stroke:#181818;stroke-width:1.0;stroke-dasharray:7.0,7.0;"/><polygon fill="none" points="1402.75,143.12,1416.0402,156.6614,1421.507,145.979,1402.75,143.12" style="stroke:#181818;stroke-width:1.0;"/></g><!--SRC=[rLHDRy8m3BtpAwATYg3yW6gQj2zjNDW1xJJjO5B3h462ae2c3VxxqgPj39HfcYOaRgtjvsS_Erw2V8SPYekXScYcy7aXlZf2o3bOAnxGEcs6oaf3IqbQbJuXUWiWbO2PsKoCdI4rUtdjPcAjAVV-RQT9S6_TAYVmgIjaglHYOh261TiR5JG4ysi9EIv8waoGSe4gfaXsiNrn1DSDm1cwKGb8kZjqXUFn05a41KvMValdL9ecP19i2ijOdtqXmHWqK7Eswi8ItshLLFDV98TpIzChFenCI8DmD9B_Ps9bYqXkkzoawR4UEhw2PRrKOr_R79rMVAkU5QtHMCeXhxV2D-n0IV8DCM_mLQsoLQligwMsvT1g2yMAdYOMZS-JYV05kJRDz8U1hLoCVRgUHHSXYMx94yNces9x-hUXSLcA8KJ2PWRx8JiJBKAuzX4VnAVmm2NopDN2AUreIhu-DjJVjj4N-47EFxs9rdC4rRhmeuhWD9oSBTrmANSKkaEfJHJep4zMdEyfpjODM2zmBT4gBcRBapg09SVYksTqPDcYxDtCIfkMorbvVhoVRG0Vpjz- -qqU30wHdUqt]--></g></svg>